# xmcd
#
# Track frame offsets: 
#        182
#        19042
#        38940
#        57535
#        78692
#        97052
#        113977
#        136030
#        152570
#        170872
#        190792
#
# Disc length: 2806 seconds
#
# Revision: 1
# Processed by: cddbd v1.5.2PL0 Copyright (c) Steve Scherf et al.
# Submitted via: ExactAudioCopy v0.99pb3
#
DISCID=940af40b
DTITLE=E.Y.C. - Express Yourself Clearly
DYEAR=1994
DGENRE=
TTITLE0=Feelin Alright
TTITLE1=Nice And Slow
TTITLE2=Black Book
TTITLE3=Remembering You Girl
TTITLE4=One More Chance
TTITLE5=The Way You Work It
TTITLE6=Baby Don't Your Know
TTITLE7=Number One
TTITLE8=Your Are My Happiness
TTITLE9=Swing My Way (Demo)
TTITLE10=Get Some
EXTD=genre :hip hop\\pop
EXTT0=
EXTT1=
EXTT2=
EXTT3=
EXTT4=
EXTT5=
EXTT6=
EXTT7=
EXTT8=
EXTT9=
EXTT10=
PLAYORDER=
